<svg width="53" height="74" viewBox="0 0 53 74" fill="none" xmlns="http://www.w3.org/2000/svg">
<path d="M0.545524 10.0004C0.549307 4.75365 4.80567 0.503427 10.0524 0.50721L42.5855 0.530667C47.8322 0.53445 52.0824 4.79081 52.0787 10.0375L52.0501 49.6054C52.0476 53.0776 50.1511 56.2718 47.1038 57.9361L35.8177 64.1001C35.0256 64.5328 34.2926 65.0657 33.6368 65.6858L26.581 72.3573L19.1949 65.6126C18.5577 65.0307 17.8511 64.5295 17.0912 64.1205L5.51438 57.8892C2.43435 56.2313 0.514509 53.015 0.517031 49.5171L0.545524 10.0004Z" fill="#5E5AFF" stroke="#0500FF"/>
<circle cx="26.5527" cy="36.5" r="23.5" fill="white"/>
<path d="M9.68484 11V3.72727H11.2225V6.72798H14.3439V3.72727H15.878V11H14.3439V7.99574H11.2225V11H9.68484ZM18.6728 11.103C18.3248 11.103 18.0146 11.0426 17.7424 10.9219C17.4701 10.7988 17.2547 10.6177 17.0961 10.3786C16.9398 10.1371 16.8617 9.83641 16.8617 9.47656C16.8617 9.17353 16.9173 8.91903 17.0286 8.71307C17.1399 8.5071 17.2914 8.34138 17.4831 8.21591C17.6749 8.09044 17.8927 7.99574 18.1365 7.93182C18.3828 7.8679 18.6408 7.82292 18.9107 7.79688C19.2279 7.76373 19.4836 7.73295 19.6777 7.70455C19.8719 7.67377 20.0127 7.62879 20.1003 7.5696C20.1879 7.51042 20.2317 7.42282 20.2317 7.30682V7.28551C20.2317 7.06061 20.1607 6.8866 20.0186 6.76349C19.879 6.64039 19.6801 6.57884 19.4221 6.57884C19.1498 6.57884 18.9332 6.6392 18.7722 6.75994C18.6112 6.87831 18.5047 7.02746 18.4526 7.20739L17.0534 7.09375C17.1245 6.76231 17.2641 6.47585 17.4725 6.23438C17.6808 5.99053 17.9495 5.8035 18.2786 5.6733C18.61 5.54072 18.9935 5.47443 19.4292 5.47443C19.7322 5.47443 20.0222 5.50994 20.2992 5.58097C20.5785 5.65199 20.8259 5.76207 21.0414 5.91122C21.2592 6.06037 21.4308 6.25213 21.5563 6.48651C21.6818 6.71851 21.7445 6.99669 21.7445 7.32102V11H20.3098V10.2436H20.2672C20.1796 10.4141 20.0624 10.5644 19.9157 10.6946C19.7689 10.8224 19.5925 10.9231 19.3865 10.9964C19.1806 11.0675 18.9426 11.103 18.6728 11.103ZM19.106 10.0589C19.3285 10.0589 19.525 10.0152 19.6955 9.92756C19.8659 9.83759 19.9997 9.71686 20.0968 9.56534C20.1938 9.41383 20.2424 9.24219 20.2424 9.05043V8.47159C20.195 8.50237 20.1299 8.53078 20.0471 8.55682C19.9666 8.58049 19.8754 8.60298 19.7736 8.62429C19.6718 8.64323 19.57 8.66098 19.4682 8.67756C19.3664 8.69176 19.2741 8.70478 19.1912 8.71662C19.0137 8.74266 18.8586 8.78409 18.726 8.84091C18.5935 8.89773 18.4905 8.97467 18.4171 9.07173C18.3437 9.16643 18.307 9.2848 18.307 9.42685C18.307 9.63281 18.3816 9.79025 18.5307 9.89915C18.6822 10.0057 18.874 10.0589 19.106 10.0589ZM24.4309 3.72727V11H22.9181V3.72727H24.4309ZM28.544 5.54545V6.68182H25.2592V5.54545H28.544ZM26.005 4.23864H27.5178V9.32386C27.5178 9.46354 27.5391 9.57244 27.5817 9.65057C27.6243 9.72633 27.6835 9.77959 27.7592 9.81037C27.8374 9.84115 27.9273 9.85653 28.0291 9.85653C28.1001 9.85653 28.1712 9.85062 28.2422 9.83878C28.3132 9.82457 28.3677 9.81392 28.4055 9.80682L28.6435 10.9325C28.5677 10.9562 28.4612 10.9834 28.3239 11.0142C28.1866 11.0473 28.0196 11.0675 27.8232 11.0746C27.4586 11.0888 27.139 11.0402 26.8643 10.929C26.5921 10.8177 26.3802 10.6449 26.2287 10.4105C26.0772 10.1761 26.0026 9.88021 26.005 9.52273V4.23864ZM31.9567 11.1065C31.3956 11.1065 30.9126 10.9929 30.5078 10.7656C30.1054 10.536 29.7952 10.2116 29.5774 9.79261C29.3596 9.37121 29.2507 8.87287 29.2507 8.29759C29.2507 7.73651 29.3596 7.24408 29.5774 6.82031C29.7952 6.39654 30.1018 6.06629 30.4972 5.82955C30.8949 5.5928 31.3613 5.47443 31.8963 5.47443C32.2562 5.47443 32.5911 5.53243 32.9013 5.64844C33.2138 5.76207 33.486 5.93371 33.718 6.16335C33.9524 6.39299 34.1347 6.68182 34.2649 7.02983C34.3951 7.37547 34.4602 7.7803 34.4602 8.24432V8.6598H29.8544V7.7223H33.0362C33.0362 7.5045 32.9889 7.31155 32.8942 7.14347C32.7995 6.97538 32.6681 6.84399 32.5 6.74929C32.3343 6.65223 32.1413 6.60369 31.9212 6.60369C31.6915 6.60369 31.4879 6.65696 31.3104 6.76349C31.1352 6.86766 30.9979 7.00852 30.8984 7.18608C30.799 7.36127 30.7481 7.55658 30.7457 7.77202V8.66335C30.7457 8.93324 30.7955 9.16643 30.8949 9.36293C30.9967 9.55942 31.1399 9.71094 31.3246 9.81747C31.5092 9.92401 31.7282 9.97727 31.9815 9.97727C32.1496 9.97727 32.3035 9.9536 32.4432 9.90625C32.5829 9.8589 32.7024 9.78788 32.8018 9.69318C32.9013 9.59848 32.977 9.48248 33.0291 9.34517L34.4283 9.4375C34.3572 9.77367 34.2116 10.0672 33.9915 10.3182C33.7737 10.5668 33.492 10.7609 33.1463 10.9006C32.803 11.0379 32.4065 11.1065 31.9567 11.1065ZM37.7903 11V3.72727H40.7022C41.2373 3.72727 41.6835 3.80658 42.041 3.9652C42.3985 4.12382 42.6672 4.34399 42.8471 4.62571C43.027 4.90507 43.117 5.22704 43.117 5.59162C43.117 5.87571 43.0602 6.12547 42.9466 6.34091C42.8329 6.55398 42.6767 6.72917 42.4778 6.86648C42.2813 7.00142 42.0564 7.0973 41.8031 7.15412V7.22514C42.0801 7.23698 42.3393 7.3151 42.5808 7.45952C42.8246 7.60393 43.0223 7.80634 43.1738 8.06676C43.3253 8.32481 43.4011 8.63258 43.4011 8.99006C43.4011 9.37595 43.3052 9.72041 43.1135 10.0234C42.9241 10.3241 42.6435 10.562 42.2718 10.7372C41.9002 10.9124 41.4421 11 40.8975 11H37.7903ZM39.3279 9.7429H40.5815C41.01 9.7429 41.3225 9.66122 41.519 9.49787C41.7155 9.33215 41.8137 9.11198 41.8137 8.83736C41.8137 8.63613 41.7652 8.45857 41.6681 8.30469C41.5711 8.1508 41.4326 8.03007 41.2527 7.94247C41.0751 7.85488 40.8632 7.81108 40.617 7.81108H39.3279V9.7429ZM39.3279 6.7706H40.4679C40.6786 6.7706 40.8656 6.7339 41.0289 6.66051C41.1947 6.58475 41.3249 6.47822 41.4196 6.34091C41.5166 6.2036 41.5652 6.03906 41.5652 5.8473C41.5652 5.58452 41.4717 5.37263 41.2846 5.21165C41.1 5.05066 40.8372 4.97017 40.4963 4.97017H39.3279V6.7706Z" fill="white"/>
<path d="M22.2189 45.2971H19.0317V46.8907H22.2189V45.2971Z" fill="#F9B233"/>
<path d="M43.4684 45.2971H40.2812V46.8907H43.4684V45.2971Z" fill="#F9B233"/>
<path d="M27.5318 41.5778H23.2817V43.1714H27.5318V41.5778Z" fill="#CBBBA0"/>
<path d="M33.3756 41.5778H29.1255V43.1714H33.3756V41.5778Z" fill="#CBBBA0"/>
<path d="M39.2193 41.5778H34.9692V43.1714H39.2193V41.5778Z" fill="#CBBBA0"/>
<path d="M40.2811 30.9534H22.2188V41.5785H40.2811V30.9534Z" fill="#FAC15C"/>
<path d="M42.9378 25.1097H19.5625V28.2969H42.9378V25.1097Z" fill="#CBBBA0"/>
<path d="M15.8438 29.3597H10.5312V37.8599H15.8438V29.3597Z" fill="#BE1622"/>
<path d="M43.456 28.8152H19.0444V24.5911H43.456V28.8152ZM20.081 27.7786H42.4194V25.6277H20.081V27.7786Z" fill="#1D1D1B"/>
<path d="M14.2499 30.9658H12.125V32.0024H14.2499V30.9658Z" fill="white"/>
<path d="M14.2499 33.0908H12.125V34.1274H14.2499V33.0908Z" fill="white"/>
<path d="M14.2499 35.2159H12.125V36.2525H14.2499V35.2159Z" fill="white"/>
<path d="M40.2811 30.4352H22.2188V31.4718H40.2811V30.4352Z" fill="#1D1D1B"/>
<path d="M43.9871 46.3724V44.7786H42.3932V29.3595H41.3566V30.4349H40.8124V31.4715H41.3566V41.0599H40.8124V42.0965H41.3566V44.7786H39.7628V46.3724H22.7371V44.7786H21.1433V42.0965H21.6875V41.0599H21.1433V31.4715H21.6875V30.4349H21.1433V29.3595H20.1067V44.7787H18.513V46.3725H13.7059V38.3777H16.3621V28.8412H10.013V38.3777H12.6693V46.3724H10V47.409H44V46.3724H43.9871ZM11.0496 29.8778H15.3255V37.3412H11.0496V29.8778ZM40.7996 45.8152H42.9505V46.3724H40.7996V45.8152ZM19.5496 45.8152H21.7005V46.3724H19.5496V45.8152Z" fill="#1D1D1B"/>
<path d="M22.763 43.6902H28.0496V42.0964H28.6068V43.6902H33.8934V42.0964H34.4505V43.6902H39.7372V42.0964H40.2812V41.0598H39.7371H34.4504H33.8934H28.6068H28.0496H22.7629H22.2188V42.0964H22.7629L22.763 43.6902ZM38.7005 42.0964V42.6536H35.4871V42.0964H38.7005ZM32.8567 42.0964V42.6536H29.6433V42.0964H32.8567ZM27.013 42.0964V42.6536H23.7996V42.0964H27.013Z" fill="#1D1D1B"/>
<path d="M22.2192 26.1851H21.1567V27.2217H22.2192V26.1851Z" fill="white"/>
<path d="M24.3442 26.1851H23.2817V27.2217H24.3442V26.1851Z" fill="white"/>
<path d="M26.4692 26.1851H25.4067V27.2217H26.4692V26.1851Z" fill="white"/>
</svg>
