<svg width="77" height="77" viewBox="0 0 77 77" fill="none" xmlns="http://www.w3.org/2000/svg">
<path d="M25.667 57.7503C25.667 57.3248 25.498 56.9168 25.1971 56.616C24.8963 56.3151 24.4883 56.1461 24.0628 56.1461H17.6462C17.4355 56.1461 17.2269 56.1876 17.0323 56.2682C16.8376 56.3488 16.6608 56.467 16.5118 56.616C16.3629 56.7649 16.2447 56.9418 16.1641 57.1364C16.0835 57.331 16.042 57.5396 16.042 57.7503V67.3753C16.042 67.5859 16.0835 67.7945 16.1641 67.9892C16.2447 68.1838 16.3629 68.3606 16.5118 68.5096C16.6608 68.6586 16.8376 68.7767 17.0323 68.8573C17.2269 68.938 17.4355 68.9794 17.6462 68.9794H24.0628C24.4883 68.9794 24.8963 68.8104 25.1971 68.5096C25.498 68.2088 25.667 67.8007 25.667 67.3753V57.7503ZM60.9587 57.7503C60.9587 57.5396 60.9172 57.331 60.8366 57.1364C60.7559 56.9418 60.6378 56.7649 60.4888 56.616C60.3399 56.467 60.163 56.3488 59.9684 56.2682C59.7738 56.1876 59.5652 56.1461 59.3545 56.1461H52.9378C52.5124 56.1461 52.1043 56.3151 51.8035 56.616C51.5027 56.9168 51.3337 57.3248 51.3337 57.7503V67.3753C51.3337 67.8007 51.5027 68.2088 51.8035 68.5096C52.1043 68.8104 52.5124 68.9794 52.9378 68.9794H59.3545C59.5652 68.9794 59.7738 68.938 59.9684 68.8573C60.163 68.7767 60.3399 68.6586 60.4888 68.5096C60.6378 68.3606 60.7559 68.1838 60.8366 67.9892C60.9172 67.7945 60.9587 67.5859 60.9587 67.3753V57.7503Z" fill="#455A64"/>
<path d="M60.1569 6.41687H16.8444C16.3177 6.41687 15.7962 6.5206 15.3097 6.72214C14.8231 6.92369 14.381 7.21909 14.0086 7.59149C13.6362 7.9639 13.3408 8.406 13.1393 8.89257C12.9377 9.37913 12.834 9.90063 12.834 10.4273V59.3544C12.834 59.3544 12.834 62.5627 16.0423 62.5627H60.959C64.1673 62.5627 64.1673 59.3544 64.1673 59.3544V10.4273C64.1673 9.90063 64.0636 9.37913 63.862 8.89257C63.6605 8.406 63.3651 7.9639 62.9927 7.59149C62.6203 7.21909 62.1782 6.92369 61.6916 6.72214C61.2051 6.5206 60.6836 6.41687 60.1569 6.41687Z" fill="#D20000"/>
<path d="M16.0422 36.0924C16.0422 36.7306 15.7886 37.3426 15.3374 37.7939C14.8861 38.2451 14.2741 38.4986 13.6359 38.4986H12.0317C11.3936 38.4986 10.7815 38.2451 10.3303 37.7939C9.879 37.3426 9.62549 36.7306 9.62549 36.0924V31.2815C9.62549 30.6433 9.879 30.0313 10.3303 29.58C10.7815 29.1288 11.3936 28.8752 12.0317 28.8752H13.6359C14.2741 28.8752 14.8861 29.1288 15.3374 29.58C15.7886 30.0313 16.0422 30.6433 16.0422 31.2815V36.0924ZM67.3755 36.0924C67.3755 36.7306 67.122 37.3426 66.6707 37.7939C66.2195 38.2451 65.6074 38.4986 64.9692 38.4986H63.3651C62.7269 38.4986 62.1149 38.2451 61.6636 37.7939C61.2123 37.3426 60.9588 36.7306 60.9588 36.0924V31.2815C60.9588 30.6433 61.2123 30.0313 61.6636 29.58C62.1149 29.1288 62.7269 28.8752 63.3651 28.8752H64.9692C65.6074 28.8752 66.2195 29.1288 66.6707 29.58C67.122 30.0313 67.3755 30.6433 67.3755 31.2815V36.0924Z" fill="#FFC107"/>
<path d="M17.6465 52.1357C17.6465 52.6623 17.7502 53.1838 17.9518 53.6704C18.1533 54.1569 18.4487 54.5991 18.8211 54.9715C19.1935 55.3439 19.6356 55.6393 20.1222 55.8408C20.6087 56.0423 21.1302 56.1461 21.6569 56.1461C22.1836 56.1461 22.7051 56.0423 23.1916 55.8408C23.6782 55.6393 24.1203 55.3439 24.4927 54.9715C24.8651 54.5991 25.1605 54.1569 25.362 53.6704C25.5636 53.1838 25.6673 52.6623 25.6673 52.1357C25.6673 51.072 25.2448 50.052 24.4927 49.2999C23.7406 48.5478 22.7205 48.1252 21.6569 48.1252C20.5933 48.1252 19.5732 48.5478 18.8211 49.2999C18.069 50.052 17.6465 51.072 17.6465 52.1357Z" fill="#FFF8E1"/>
<path d="M51.334 52.1357C51.334 53.1993 51.7565 54.2194 52.5086 54.9715C53.2607 55.7236 54.2808 56.1461 55.3444 56.1461C56.408 56.1461 57.4281 55.7236 58.1802 54.9715C58.9323 54.2194 59.3548 53.1993 59.3548 52.1357C59.3548 51.072 58.9323 50.052 58.1802 49.2999C57.4281 48.5478 56.408 48.1252 55.3444 48.1252C54.2808 48.1252 53.2607 48.5478 52.5086 49.2999C51.7565 50.052 51.334 51.072 51.334 52.1357Z" fill="#FFF8E1"/>
<path d="M58.5524 9.62524H18.4482C17.8101 9.62524 17.198 9.87876 16.7468 10.33C16.2955 10.7813 16.042 11.3933 16.042 12.0315V37.6982C16.042 38.2248 16.1457 38.7463 16.3473 39.2329C16.5488 39.7194 16.8442 40.1616 17.2166 40.534C17.589 40.9064 18.0311 41.2018 18.5177 41.4033C19.0043 41.6048 19.5258 41.7086 20.0524 41.7086H56.9482C57.4749 41.7086 57.9964 41.6048 58.483 41.4033C58.9695 41.2018 59.4116 40.9064 59.784 40.534C60.1564 40.1616 60.4518 39.7194 60.6534 39.2329C60.8549 38.7463 60.9587 38.2248 60.9587 37.6982V12.0315C60.9587 11.3933 60.7051 10.7813 60.2539 10.33C59.8026 9.87876 59.1906 9.62524 58.5524 9.62524Z" fill="#9FA8DA"/>
<path d="M60.9587 19.2502H16.042V12.0315C16.042 11.3933 16.2955 10.7813 16.7468 10.33C17.198 9.87876 17.8101 9.62524 18.4482 9.62524H58.5524C59.1906 9.62524 59.8026 9.87876 60.2539 10.33C60.7051 10.7813 60.9587 11.3933 60.9587 12.0315V19.2502Z" fill="#263238"/>
<path d="M19.2505 12.8336H36.8963V16.042H19.2505V12.8336ZM40.1047 12.8336H46.5213V16.042H40.1047V12.8336Z" fill="#64DD17"/>
<path d="M33.6878 41.7086H20.8545V29.6774C20.8545 29.0392 21.108 28.4272 21.5593 27.9759C22.0105 27.5246 22.6226 27.2711 23.2607 27.2711H31.2816C31.9198 27.2711 32.5318 27.5246 32.9831 27.9759C33.4343 28.4272 33.6878 29.0392 33.6878 29.6774V41.7086ZM56.1462 41.7086H43.3128V29.6774C43.3128 29.0392 43.5663 28.4272 44.0176 27.9759C44.4689 27.5246 45.0809 27.2711 45.7191 27.2711H53.7399C54.3781 27.2711 54.9901 27.5246 55.4414 27.9759C55.8926 28.4272 56.1462 29.0392 56.1462 29.6774V41.7086Z" fill="#7986CB"/>
<path d="M45.6071 41.7086C45.1804 41.2321 44.9173 40.6867 44.9173 40.1044C44.9173 38.3655 47.1214 36.8961 49.7298 36.8961C52.3382 36.8961 54.5423 38.3655 54.5423 40.1044C54.5423 40.6867 54.2792 41.2321 53.8525 41.7086H57.4651C57.6335 41.1936 57.7507 40.6627 57.7507 40.1044C57.7507 36.5656 54.1525 33.6877 49.7298 33.6877C45.3071 33.6877 41.709 36.5656 41.709 40.1044C41.709 40.6627 41.8261 41.1936 41.9945 41.7086H45.6071Z" fill="#3949AB"/>
</svg>
