<svg width="77" height="77" viewBox="0 0 77 77" fill="none" xmlns="http://www.w3.org/2000/svg">
<path d="M25.6665 57.7503C25.6665 57.3248 25.4975 56.9168 25.1967 56.616C24.8958 56.3151 24.4878 56.1461 24.0623 56.1461H17.6457C17.435 56.1461 17.2264 56.1876 17.0318 56.2682C16.8372 56.3488 16.6603 56.467 16.5114 56.616C16.3624 56.7649 16.2442 56.9418 16.1636 57.1364C16.083 57.331 16.0415 57.5396 16.0415 57.7503V67.3753C16.0415 67.5859 16.083 67.7945 16.1636 67.9892C16.2442 68.1838 16.3624 68.3606 16.5114 68.5096C16.6603 68.6586 16.8372 68.7767 17.0318 68.8573C17.2264 68.938 17.435 68.9794 17.6457 68.9794H24.0623C24.4878 68.9794 24.8958 68.8104 25.1967 68.5096C25.4975 68.2088 25.6665 67.8007 25.6665 67.3753V57.7503ZM60.9582 57.7503C60.9582 57.5396 60.9167 57.331 60.8361 57.1364C60.7554 56.9418 60.6373 56.7649 60.4883 56.616C60.3394 56.467 60.1625 56.3488 59.9679 56.2682C59.7733 56.1876 59.5647 56.1461 59.354 56.1461H52.9373C52.5119 56.1461 52.1039 56.3151 51.803 56.616C51.5022 56.9168 51.3332 57.3248 51.3332 57.7503V67.3753C51.3332 67.8007 51.5022 68.2088 51.803 68.5096C52.1039 68.8104 52.5119 68.9794 52.9373 68.9794H59.354C59.5647 68.9794 59.7733 68.938 59.9679 68.8573C60.1625 68.7767 60.3394 68.6586 60.4883 68.5096C60.6373 68.3606 60.7554 68.1838 60.8361 67.9892C60.9167 67.7945 60.9582 67.5859 60.9582 67.3753V57.7503Z" fill="#455A64"/>
<path d="M60.1564 6.41687H16.8439C16.3173 6.41687 15.7958 6.5206 15.3092 6.72214C14.8226 6.92369 14.3805 7.21909 14.0081 7.59149C13.6357 7.9639 13.3403 8.406 13.1388 8.89257C12.9372 9.37913 12.8335 9.90063 12.8335 10.4273V59.3544C12.8335 59.3544 12.8335 62.5627 16.0418 62.5627H60.9585C64.1668 62.5627 64.1668 59.3544 64.1668 59.3544V10.4273C64.1668 9.90063 64.0631 9.37913 63.8616 8.89257C63.66 8.406 63.3646 7.9639 62.9922 7.59149C62.6198 7.21909 62.1777 6.92369 61.6911 6.72214C61.2046 6.5206 60.6831 6.41687 60.1564 6.41687Z" fill="#FFC107"/>
<path d="M16.0417 36.0924C16.0417 36.7306 15.7882 37.3426 15.3369 37.7939C14.8856 38.2451 14.2736 38.4986 13.6354 38.4986H12.0312C11.3931 38.4986 10.781 38.2451 10.3298 37.7939C9.87852 37.3426 9.625 36.7306 9.625 36.0924V31.2815C9.625 30.6433 9.87852 30.0313 10.3298 29.58C10.781 29.1288 11.3931 28.8752 12.0312 28.8752H13.6354C14.2736 28.8752 14.8856 29.1288 15.3369 29.58C15.7882 30.0313 16.0417 30.6433 16.0417 31.2815V36.0924ZM67.375 36.0924C67.375 36.7306 67.1215 37.3426 66.6702 37.7939C66.219 38.2451 65.6069 38.4986 64.9688 38.4986H63.3646C62.7264 38.4986 62.1144 38.2451 61.6631 37.7939C61.2118 37.3426 60.9583 36.7306 60.9583 36.0924V31.2815C60.9583 30.6433 61.2118 30.0313 61.6631 29.58C62.1144 29.1288 62.7264 28.8752 63.3646 28.8752H64.9688C65.6069 28.8752 66.219 29.1288 66.6702 29.58C67.1215 30.0313 67.375 30.6433 67.375 31.2815V36.0924Z" fill="#FFC107"/>
<path d="M17.646 52.1357C17.646 52.6623 17.7497 53.1838 17.9513 53.6704C18.1528 54.1569 18.4482 54.5991 18.8206 54.9715C19.193 55.3439 19.6351 55.6393 20.1217 55.8408C20.6083 56.0423 21.1298 56.1461 21.6564 56.1461C22.1831 56.1461 22.7046 56.0423 23.1911 55.8408C23.6777 55.6393 24.1198 55.3439 24.4922 54.9715C24.8646 54.5991 25.16 54.1569 25.3616 53.6704C25.5631 53.1838 25.6668 52.6623 25.6668 52.1357C25.6668 51.072 25.2443 50.052 24.4922 49.2999C23.7401 48.5478 22.72 48.1252 21.6564 48.1252C20.5928 48.1252 19.5727 48.5478 18.8206 49.2999C18.0685 50.052 17.646 51.072 17.646 52.1357Z" fill="#FFF8E1"/>
<path d="M51.3335 52.1357C51.3335 53.1993 51.756 54.2194 52.5081 54.9715C53.2602 55.7236 54.2803 56.1461 55.3439 56.1461C56.4075 56.1461 57.4276 55.7236 58.1797 54.9715C58.9318 54.2194 59.3543 53.1993 59.3543 52.1357C59.3543 51.072 58.9318 50.052 58.1797 49.2999C57.4276 48.5478 56.4075 48.1252 55.3439 48.1252C54.2803 48.1252 53.2602 48.5478 52.5081 49.2999C51.756 50.052 51.3335 51.072 51.3335 52.1357Z" fill="#FFF8E1"/>
<path d="M58.5519 9.62524H18.4478C17.8096 9.62524 17.1975 9.87876 16.7463 10.33C16.295 10.7813 16.0415 11.3933 16.0415 12.0315V37.6982C16.0415 38.2248 16.1452 38.7463 16.3468 39.2329C16.5483 39.7194 16.8437 40.1616 17.2161 40.534C17.5885 40.9064 18.0306 41.2018 18.5172 41.4033C19.0038 41.6048 19.5253 41.7086 20.0519 41.7086H56.9478C57.4744 41.7086 57.9959 41.6048 58.4825 41.4033C58.969 41.2018 59.4111 40.9064 59.7836 40.534C60.156 40.1616 60.4514 39.7194 60.6529 39.2329C60.8544 38.7463 60.9582 38.2248 60.9582 37.6982V12.0315C60.9582 11.3933 60.7047 10.7813 60.2534 10.33C59.8021 9.87876 59.1901 9.62524 58.5519 9.62524Z" fill="#9FA8DA"/>
<path d="M60.9582 19.2502H16.0415V12.0315C16.0415 11.3933 16.295 10.7813 16.7463 10.33C17.1975 9.87876 17.8096 9.62524 18.4478 9.62524H58.5519C59.1901 9.62524 59.8021 9.87876 60.2534 10.33C60.7047 10.7813 60.9582 11.3933 60.9582 12.0315V19.2502Z" fill="#263238"/>
<path d="M19.25 12.8336H36.8958V16.042H19.25V12.8336ZM40.1042 12.8336H46.5208V16.042H40.1042V12.8336Z" fill="#64DD17"/>
<path d="M33.6873 41.7086H20.854V29.6774C20.854 29.0392 21.1075 28.4272 21.5588 27.9759C22.01 27.5246 22.6221 27.2711 23.2603 27.2711H31.2811C31.9193 27.2711 32.5313 27.5246 32.9826 27.9759C33.4338 28.4272 33.6873 29.0392 33.6873 29.6774V41.7086ZM56.1457 41.7086H43.3123V29.6774C43.3123 29.0392 43.5658 28.4272 44.0171 27.9759C44.4684 27.5246 45.0804 27.2711 45.7186 27.2711H53.7394C54.3776 27.2711 54.9896 27.5246 55.4409 27.9759C55.8922 28.4272 56.1457 29.0392 56.1457 29.6774V41.7086Z" fill="#7986CB"/>
<path d="M45.6066 41.7086C45.1799 41.2321 44.9168 40.6867 44.9168 40.1044C44.9168 38.3655 47.121 36.8961 49.7293 36.8961C52.3377 36.8961 54.5418 38.3655 54.5418 40.1044C54.5418 40.6867 54.2787 41.2321 53.852 41.7086H57.4646C57.6331 41.1936 57.7502 40.6627 57.7502 40.1044C57.7502 36.5656 54.152 33.6877 49.7293 33.6877C45.3066 33.6877 41.7085 36.5656 41.7085 40.1044C41.7085 40.6627 41.8256 41.1936 41.994 41.7086H45.6066Z" fill="#3949AB"/>
</svg>
