<svg width="95" height="95" viewBox="0 0 95 95" fill="none" xmlns="http://www.w3.org/2000/svg">
<path d="M89.0626 65.312H5.9376C2.66431 65.312 0 62.6504 0 59.3744V25.7282C0 22.4549 2.66431 19.7908 5.9376 19.7908H89.0626C92.3385 19.7908 95 22.4549 95 25.7282V59.3744C95 62.6504 92.3385 65.312 89.0626 65.312Z" fill="#D20000"/>
<path d="M0 59.3743C0 62.6504 2.66431 65.3119 5.9376 65.3119H14.8279V57.3971H0V59.3743Z" fill="#E6E9ED"/>
<path d="M95.0002 27.7084H9.89669C8.80362 27.7084 7.9165 28.594 7.9165 29.6871V45.5208C7.9165 46.6139 8.80362 47.498 9.89669 47.498H95.0002V27.7084Z" fill="#4FC2E9"/>
<path d="M17.8128 55.4141C12.3565 55.4141 7.9165 59.8556 7.9165 65.3119C7.9165 70.768 12.3565 75.2097 17.8128 75.2097C23.2691 75.2097 27.7091 70.768 27.7091 65.3119C27.7091 59.8556 23.2691 55.4141 17.8128 55.4141Z" fill="#434A54"/>
<path d="M73.2275 55.4141C67.7714 55.4141 63.3354 59.8556 63.3354 65.3119C63.3354 70.768 67.7712 75.2097 73.2275 75.2097C78.6866 75.2097 83.1253 70.768 83.1253 65.3119C83.1253 59.8556 78.6866 55.4141 73.2275 55.4141Z" fill="#434A54"/>
<path d="M19.2131 63.9146C19.9857 64.6857 19.9857 65.9382 19.2131 66.7094C18.439 67.4864 17.1865 67.4864 16.4141 66.7094C15.64 65.9382 15.64 64.6857 16.4141 63.9146C17.1865 63.1375 18.439 63.1375 19.2131 63.9146Z" fill="#F5F7FA"/>
<path d="M57.3974 47.5077H33.647V65.3131H57.3974V47.5077Z" fill="#E6E9ED"/>
<path d="M74.6303 63.9146C75.4015 64.6857 75.4015 65.9382 74.6303 66.7094C73.8562 67.4864 72.601 67.4864 71.8298 66.7094C71.0587 65.9382 71.0587 64.6857 71.8298 63.9146C72.601 63.1375 73.8562 63.1375 74.6303 63.9146Z" fill="#F5F7FA"/>
<path d="M46.51 27.7076H44.5312V65.3112H46.51V27.7076Z" fill="#E6E9ED"/>
<path d="M17.6836 47.5067L17.6226 27.7083L21.5815 27.6967L21.6423 47.4923L17.6836 47.5067Z" fill="#3BAFDA"/>
<path d="M71.2791 47.5067L71.2212 27.7083L75.1754 27.6967L75.2393 47.4923L71.2791 47.5067Z" fill="#3BAFDA"/>
<path d="M33.6465 27.7083H57.398V65.3119H59.3751V27.7083V25.7281H57.398H33.6465H31.6665V27.7083V65.3119H33.6465V27.7083Z" fill="#E6E9ED"/>
<path d="M95.0001 51.4597H89.0627C87.9696 51.4597 87.0854 52.3411 87.0854 53.4369C87.0854 54.5328 87.9698 55.4142 89.0627 55.4142H95.0001V51.4597Z" fill="#E6E9ED"/>
</svg>
