<svg width="95" height="95" viewBox="0 0 95 95" fill="none" xmlns="http://www.w3.org/2000/svg">
<g clip-path="url(#clip0_77_52)">
<path d="M89.0631 65.312H5.93809C2.6648 65.312 0.000488281 62.6504 0.000488281 59.3744V25.7282C0.000488281 22.4549 2.6648 19.7908 5.93809 19.7908H89.0631C92.339 19.7908 95.0005 22.4549 95.0005 25.7282V59.3744C95.0005 62.6504 92.339 65.312 89.0631 65.312Z" fill="#FFCE54"/>
<path d="M0.000488281 59.3743C0.000488281 62.6504 2.6648 65.3119 5.93809 65.3119H14.8284V57.3971H0.000488281V59.3743Z" fill="#E6E9ED"/>
<path d="M95.0007 27.7084H9.89718C8.80411 27.7084 7.91699 28.594 7.91699 29.6871V45.5208C7.91699 46.6139 8.80411 47.498 9.89718 47.498H95.0007V27.7084Z" fill="#4FC2E9"/>
<path d="M17.8133 55.4141C12.357 55.4141 7.91699 59.8556 7.91699 65.3119C7.91699 70.768 12.357 75.2097 17.8133 75.2097C23.2696 75.2097 27.7096 70.768 27.7096 65.3119C27.7096 59.8556 23.2696 55.4141 17.8133 55.4141Z" fill="#434A54"/>
<path d="M73.228 55.4141C67.7719 55.4141 63.3359 59.8556 63.3359 65.3119C63.3359 70.768 67.7717 75.2097 73.228 75.2097C78.6871 75.2097 83.1258 70.768 83.1258 65.3119C83.1258 59.8556 78.6871 55.4141 73.228 55.4141Z" fill="#434A54"/>
<path d="M19.2136 63.9146C19.9862 64.6857 19.9862 65.9382 19.2136 66.7094C18.4395 67.4864 17.187 67.4864 16.4146 66.7094C15.6405 65.9382 15.6405 64.6857 16.4146 63.9146C17.187 63.1375 18.4395 63.1375 19.2136 63.9146Z" fill="#F5F7FA"/>
<path d="M57.3979 47.5077H33.6475V65.3131H57.3979V47.5077Z" fill="#E6E9ED"/>
<path d="M74.6308 63.9146C75.402 64.6857 75.402 65.9382 74.6308 66.7094C73.8567 67.4864 72.6015 67.4864 71.8303 66.7094C71.0592 65.9382 71.0592 64.6857 71.8303 63.9146C72.6015 63.1375 73.8567 63.1375 74.6308 63.9146Z" fill="#F5F7FA"/>
<path d="M46.5104 27.7076H44.5317V65.3112H46.5104V27.7076Z" fill="#E6E9ED"/>
<path d="M17.6841 47.5067L17.623 27.7083L21.5819 27.6967L21.6428 47.4923L17.6841 47.5067Z" fill="#3BAFDA"/>
<path d="M71.2796 47.5067L71.2217 27.7083L75.1759 27.6967L75.2398 47.4923L71.2796 47.5067Z" fill="#3BAFDA"/>
<path d="M33.647 27.7083H57.3985V65.3119H59.3756V27.7083V25.7281H57.3985H33.647H31.667V27.7083V65.3119H33.647V27.7083Z" fill="#E6E9ED"/>
<path d="M95.0006 51.4597H89.0632C87.9701 51.4597 87.0859 52.3411 87.0859 53.4369C87.0859 54.5328 87.9703 55.4142 89.0632 55.4142H95.0006V51.4597Z" fill="#E6E9ED"/>
</g>
<defs>
<clipPath id="clip0_77_52">
<rect width="95" height="95" fill="white" transform="translate(0.000488281 0.00012207)"/>
</clipPath>
</defs>
</svg>
